<svg xmlns="http://www.w3.org/2000/svg" viewBox="0 0 24 24">
	<path d="M11.695 1.057a1.04 1.04 0 0 0-.567.459l-.108.184v4.606l.121.197a.998.998 0 0 0 1.718 0l.121-.197V1.7l-.108-.184a1.005 1.005 0 0 0-1.177-.459M4.78 3.947c-.393.09-.653.304-.779.638-.098.263-.101.374-.017.658.061.206.138.291 1.59 1.75.839.843 1.602 1.578 1.694 1.633.46.272 1.079.102 1.359-.374.097-.165.113-.235.113-.492 0-.254-.017-.328-.107-.48-.144-.243-3.092-3.169-3.273-3.249-.156-.069-.457-.113-.58-.084m14.07.014a1.101 1.101 0 0 0-.34.154c-.249.174-3.088 3.04-3.175 3.205-.052.099-.074.228-.074.44-.001.258.015.327.112.492.28.476.899.646 1.359.374.092-.055.855-.79 1.694-1.633 1.452-1.459 1.529-1.544 1.59-1.75.079-.27.08-.336.002-.598a1.008 1.008 0 0 0-1.168-.684M1.695 11.057a1.04 1.04 0 0 0-.567.459c-.091.156-.108.23-.108.484 0 .256.016.328.111.489.125.213.318.375.539.454.219.078 4.441.078 4.66 0 .221-.079.414-.241.539-.454.095-.161.111-.233.111-.489 0-.254-.017-.328-.108-.484a1.02 1.02 0 0 0-.582-.461c-.257-.077-4.347-.076-4.595.002m16 0a1.04 1.04 0 0 0-.567.459c-.091.156-.108.23-.108.484 0 .256.016.328.111.489.125.213.318.375.539.454.219.078 4.441.078 4.66 0 .221-.079.414-.241.539-.454.095-.161.111-.233.111-.489 0-.254-.017-.328-.108-.484a1.02 1.02 0 0 0-.582-.461c-.257-.077-4.347-.076-4.595.002M7.42 15.307c-.183.055-.328.189-1.711 1.566-.831.828-1.556 1.57-1.611 1.65-.266.383-.209.896.137 1.243a.892.892 0 0 0 .402.25c.271.08.335.08.606 0 .206-.061.291-.138 1.75-1.59.843-.839 1.581-1.607 1.64-1.706.09-.152.107-.226.107-.48s-.017-.328-.108-.484a1.02 1.02 0 0 0-.582-.461c-.228-.069-.376-.066-.63.012m8.515-.01a1.04 1.04 0 0 0-.567.459c-.091.156-.108.23-.108.484s.017.328.107.48c.059.099.797.867 1.64 1.706 1.459 1.452 1.544 1.529 1.75 1.59.271.08.335.08.606 0 .473-.141.783-.655.684-1.133a1.179 1.179 0 0 0-.145-.36c-.055-.08-.78-.822-1.611-1.65-1.438-1.432-1.522-1.508-1.728-1.569-.257-.076-.404-.077-.628-.007m-4.24 1.76a1.04 1.04 0 0 0-.567.459l-.108.184v4.606l.121.197c.068.11.205.253.311.325.471.316 1.102.171 1.407-.325l.121-.197V17.7l-.108-.184a1.005 1.005 0 0 0-1.177-.459" fill="#000" fill-rule="evenodd"/>
</svg>