<svg xmlns="http://www.w3.org/2000/svg" viewBox="0 0 24 24">
	<path d="M10.536 2.078a9.924 9.924 0 0 0-4.093 1.604C4.17 5.203 2.622 7.63 2.158 10.4c-.121.723-.148 1.885-.061 2.64.537 4.675 4.172 8.324 8.823 8.858 2.595.298 5.228-.456 7.328-2.098.424-.332 1.264-1.166 1.593-1.58a10.355 10.355 0 0 0 1.772-3.38c.236-.78.418-1.852.372-2.186a.983.983 0 0 0-.985-.852c-.259 0-.439.074-.85.351-.639.432-1.346.72-2.23.911-.474.102-1.632.104-2.14.004-2.37-.469-4.194-2.184-4.754-4.468-.402-1.641-.12-3.295.808-4.727.299-.463.366-.619.366-.857a.96.96 0 0 0-.505-.881c-.237-.139-.54-.154-1.159-.057M9.32 4.454c0 .007-.037.12-.081.25-.75 2.172-.415 4.779.869 6.77 1.81 2.806 5.187 4.215 8.399 3.503a9.15 9.15 0 0 0 1.038-.297c.059 0-.347.873-.623 1.34a8.017 8.017 0 0 1-5.933 3.88c-3.39.419-6.682-1.401-8.173-4.52a7.967 7.967 0 0 1-.17-6.46 8.103 8.103 0 0 1 3.431-3.902c.448-.257 1.243-.618 1.243-.564" fill-rule="evenodd"/>
</svg>