<svg xmlns="http://www.w3.org/2000/svg" viewBox="0 0 24 24">
	<path d="M11.695.057a1.04 1.04 0 0 0-.567.459L11.02.7v2.606l.121.197a.998.998 0 0 0 1.718 0l.121-.197V.7l-.108-.184a1.005 1.005 0 0 0-1.177-.459M3.764 3.345a.985.985 0 0 0-.362 1.435c.163.234 1.634 1.678 1.798 1.765.1.052.227.074.44.074.258.001.327-.015.492-.112.476-.28.646-.899.374-1.359-.158-.267-1.653-1.728-1.866-1.825a1.06 1.06 0 0 0-.876.022m15.596-.022c-.213.097-1.708 1.558-1.866 1.825-.272.46-.102 1.079.374 1.359.165.097.234.113.492.112.213 0 .34-.022.44-.074.165-.087 1.635-1.531 1.8-1.768.227-.324.216-.811-.025-1.149-.254-.357-.798-.494-1.215-.305m-7.98 2.72c-2.596.256-4.704 2.176-5.265 4.797-.131.61-.131 1.718-.001 2.32.525 2.428 2.303 4.205 4.726 4.725.606.13 1.714.13 2.32 0 1.237-.265 2.252-.817 3.109-1.69.84-.855 1.357-1.826 1.616-3.035.13-.606.13-1.714 0-2.32-.259-1.209-.776-2.18-1.616-3.035C14.978 6.49 13.23 5.86 11.38 6.043m1.225 2.015c1.469.222 2.705 1.266 3.192 2.697.1.295.203.925.203 1.245 0 .322-.103.951-.204 1.245-.475 1.387-1.601 2.383-3.023 2.672-2.21.451-4.377-1.072-4.715-3.312a3.416 3.416 0 0 1 0-1.21c.256-1.697 1.617-3.071 3.3-3.334a3.728 3.728 0 0 1 1.247-.003M.695 11.057a1.04 1.04 0 0 0-.567.459c-.091.156-.108.23-.108.484 0 .256.016.328.111.489.125.213.318.375.539.454.215.077 2.445.077 2.66 0 .221-.079.414-.241.539-.454.095-.161.111-.233.111-.489 0-.254-.017-.328-.108-.484a1.02 1.02 0 0 0-.582-.461c-.251-.076-2.353-.074-2.595.002m20 0a1.04 1.04 0 0 0-.567.459c-.091.156-.108.23-.108.484 0 .256.016.328.111.489.125.213.318.375.539.454.215.077 2.445.077 2.66 0 .221-.079.414-.241.539-.454.095-.161.111-.233.111-.489 0-.254-.017-.328-.108-.484a1.02 1.02 0 0 0-.582-.461c-.251-.076-2.353-.074-2.595.002M5.28 17.43c-.144.05-.34.22-.974.846-.437.431-.844.856-.905.944-.401.58-.063 1.407.624 1.529.265.047.553-.009.75-.147.239-.167 1.682-1.637 1.77-1.802.052-.1.074-.227.074-.44.001-.255-.015-.328-.107-.484a1.012 1.012 0 0 0-1.232-.446m12.75-.009c-.222.081-.42.248-.542.455-.092.156-.108.229-.107.484 0 .213.022.34.074.44.087.165 1.531 1.635 1.768 1.8.437.306 1.09.177 1.388-.274a1.04 1.04 0 0 0-.01-1.103c-.062-.09-.47-.515-.907-.946-.674-.666-.824-.794-.991-.85a.998.998 0 0 0-.673-.006m-6.335 2.636a1.04 1.04 0 0 0-.567.459l-.108.184v2.606l.121.197a.998.998 0 0 0 1.718 0l.121-.197V20.7l-.108-.184a1.005 1.005 0 0 0-1.177-.459" fill-rule="evenodd"/>
</svg>